<svg width="999" height="834" viewBox="0 0 999 834" fill="none" xmlns="http://www.w3.org/2000/svg">
<g clip-path="url(#clip0)">
<rect width="998.95" height="833.99" fill="white"/>
<path opacity="0.1" d="M323.829 29.66C353.039 3.65999 398.889 -1.67001 440.629 0.399991C571.719 6.91999 690.049 70.2 792.409 141.79C829.469 167.7 865.949 195.63 889.999 231.32C938.999 303.97 924.439 404.61 856.359 464.46C833.189 484.82 805.109 500.46 776.279 514.27C725.019 538.87 669.709 558.62 611.529 564.27C570.049 568.27 528.049 565.02 486.799 559.43C371.569 543.77 258.479 509.21 163.649 450.09C122.069 424.16 82.8792 391.92 65.7392 349.99C48.5992 308.06 59.5692 254.86 102.029 229.99C119.589 219.72 140.589 215.08 161.139 210.72C191.399 204.31 222.139 197.99 249.439 184.96C277.649 171.5 311.039 145.47 305.439 115.67C299.479 83.74 294.659 55.66 323.829 29.66Z" fill="#37474F"/>
<path d="M684.949 668.89C684.949 668.89 710.009 624.5 747.739 611.71C763.601 606.446 777.328 596.179 786.859 582.45C791.334 575.898 795.197 568.949 798.399 561.69" stroke="#535461" stroke-width="2" stroke-miterlimit="10"/>
<path d="M822.141 553.48C817.841 557.66 797.811 561.97 797.811 561.97C797.811 561.97 802.721 542.08 807.021 537.91C809.085 535.905 811.862 534.802 814.74 534.844C817.617 534.887 820.361 536.07 822.366 538.135C824.371 540.2 825.473 542.976 825.431 545.854C825.389 548.732 824.205 551.475 822.141 553.48V553.48Z" fill="#37474F"/>
<path d="M810.811 589.47C804.931 590.64 785.811 583.38 785.811 583.38C785.811 583.38 800.751 569.38 806.621 568.18C809.444 567.619 812.374 568.203 814.767 569.802C817.16 571.402 818.82 573.887 819.381 576.71C819.941 579.533 819.358 582.464 817.758 584.857C816.159 587.25 813.674 588.909 810.851 589.47H810.811Z" fill="#37474F"/>
<path d="M769.56 628.41C763.89 626.41 751.02 610.51 751.02 610.51C751.02 610.51 771.02 605.95 776.66 607.91C778.035 608.353 779.308 609.066 780.405 610.007C781.501 610.948 782.398 612.099 783.044 613.392C783.689 614.685 784.07 616.094 784.163 617.536C784.257 618.978 784.062 620.424 783.589 621.789C783.116 623.155 782.375 624.412 781.409 625.487C780.444 626.562 779.274 627.434 777.967 628.051C776.66 628.667 775.243 629.017 773.799 629.079C772.356 629.14 770.914 628.913 769.56 628.41V628.41Z" fill="#37474F"/>
<path d="M731.71 650.85C725.8 649.85 710.42 636.34 710.42 636.34C710.42 636.34 729.33 628.46 735.24 629.44C736.656 629.66 738.015 630.158 739.238 630.907C740.46 631.655 741.523 632.638 742.363 633.799C743.204 634.96 743.806 636.276 744.135 637.671C744.464 639.066 744.513 640.512 744.28 641.927C744.047 643.341 743.536 644.695 742.777 645.91C742.017 647.126 741.024 648.179 739.855 649.009C738.687 649.839 737.365 650.429 735.967 650.745C734.569 651.061 733.122 651.096 731.71 650.85V650.85Z" fill="#37474F"/>
<path d="M769.07 567.84C769.07 573.84 779.91 591.21 779.91 591.21C779.91 591.21 790.77 573.84 790.77 567.85C790.77 564.972 789.627 562.213 787.592 560.178C785.558 558.143 782.798 557 779.92 557C777.043 557 774.283 558.143 772.248 560.178C770.213 562.213 769.07 564.972 769.07 567.85V567.84Z" fill="#37474F"/>
<path d="M725.139 594.64C726.939 600.36 742.479 613.7 742.479 613.7C742.479 613.7 747.639 593.87 745.849 588.15C744.989 585.404 743.072 583.112 740.522 581.778C737.971 580.445 734.995 580.179 732.249 581.04C729.503 581.901 727.211 583.817 725.878 586.367C724.544 588.918 724.278 591.894 725.139 594.64V594.64Z" fill="#37474F"/>
<path d="M686.021 626.54C686.821 632.48 699.891 648.26 699.891 648.26C699.891 648.26 708.331 629.59 707.531 623.65C707.147 620.798 705.647 618.214 703.359 616.468C701.071 614.722 698.183 613.957 695.331 614.34C692.478 614.723 689.895 616.224 688.149 618.512C686.403 620.8 685.637 623.688 686.021 626.54Z" fill="#37474F"/>
<path opacity="0.25" d="M822.141 553.48C817.841 557.66 797.811 561.97 797.811 561.97C797.811 561.97 802.721 542.08 807.021 537.91C809.085 535.905 811.862 534.802 814.74 534.844C817.617 534.887 820.361 536.07 822.366 538.135C824.371 540.2 825.473 542.976 825.431 545.854C825.389 548.732 824.205 551.475 822.141 553.48V553.48Z" fill="black"/>
<path opacity="0.25" d="M810.811 589.47C804.931 590.64 785.811 583.38 785.811 583.38C785.811 583.38 800.751 569.38 806.621 568.18C809.444 567.619 812.374 568.203 814.767 569.802C817.16 571.402 818.82 573.887 819.381 576.71C819.941 579.533 819.358 582.464 817.758 584.857C816.159 587.25 813.674 588.909 810.851 589.47H810.811Z" fill="black"/>
<path opacity="0.25" d="M769.56 628.41C763.89 626.41 751.02 610.51 751.02 610.51C751.02 610.51 771.02 605.95 776.66 607.91C778.035 608.353 779.308 609.066 780.405 610.007C781.501 610.948 782.398 612.099 783.044 613.392C783.689 614.685 784.07 616.094 784.163 617.536C784.257 618.978 784.062 620.424 783.589 621.789C783.116 623.155 782.375 624.412 781.409 625.487C780.444 626.562 779.274 627.434 777.967 628.051C776.66 628.667 775.243 629.017 773.799 629.079C772.356 629.14 770.914 628.913 769.56 628.41V628.41Z" fill="black"/>
<path opacity="0.25" d="M731.71 650.85C725.8 649.85 710.42 636.34 710.42 636.34C710.42 636.34 729.33 628.46 735.24 629.44C736.656 629.66 738.015 630.158 739.238 630.907C740.46 631.655 741.523 632.638 742.363 633.799C743.204 634.96 743.806 636.276 744.135 637.671C744.464 639.066 744.513 640.512 744.28 641.927C744.047 643.341 743.536 644.695 742.777 645.91C742.017 647.126 741.024 648.179 739.855 649.009C738.687 649.839 737.365 650.429 735.967 650.745C734.569 651.061 733.122 651.096 731.71 650.85V650.85Z" fill="black"/>
<path opacity="0.25" d="M769.07 567.84C769.07 573.84 779.91 591.21 779.91 591.21C779.91 591.21 790.77 573.84 790.77 567.85C790.77 564.972 789.627 562.213 787.592 560.178C785.558 558.143 782.798 557 779.92 557C777.043 557 774.283 558.143 772.248 560.178C770.213 562.213 769.07 564.972 769.07 567.85V567.84Z" fill="black"/>
<path opacity="0.25" d="M725.139 594.64C726.939 600.36 742.479 613.7 742.479 613.7C742.479 613.7 747.639 593.87 745.849 588.15C744.989 585.404 743.072 583.112 740.522 581.778C737.971 580.445 734.995 580.179 732.249 581.04C729.503 581.901 727.211 583.817 725.878 586.367C724.544 588.918 724.278 591.894 725.139 594.64V594.64Z" fill="black"/>
<path opacity="0.25" d="M686.021 626.54C686.821 632.48 699.891 648.26 699.891 648.26C699.891 648.26 708.331 629.59 707.531 623.65C707.147 620.798 705.647 618.214 703.359 616.468C701.071 614.722 698.183 613.957 695.331 614.34C692.478 614.723 689.895 616.224 688.149 618.512C686.403 620.8 685.637 623.688 686.021 626.54Z" fill="black"/>
<path d="M686.391 667.99C686.391 667.99 691.311 617.25 720.631 590.27C732.998 579.027 741.384 564.075 744.531 547.66C745.97 539.853 746.686 531.929 746.671 523.99" stroke="#535461" stroke-width="2" stroke-miterlimit="10"/>
<path d="M765.04 506.91C762.8 512.47 746.24 524.53 746.24 524.53C746.24 524.53 742.68 504.35 744.92 498.8C745.427 497.444 746.2 496.203 747.194 495.15C748.189 494.097 749.383 493.254 750.709 492.67C752.034 492.087 753.462 491.774 754.91 491.751C756.358 491.728 757.796 491.995 759.139 492.536C760.482 493.078 761.703 493.882 762.73 494.903C763.757 495.924 764.57 497.14 765.12 498.479C765.67 499.819 765.946 501.255 765.932 502.703C765.918 504.151 765.615 505.581 765.04 506.91V506.91Z" fill="#37474F"/>
<path d="M769.27 544.4C764.37 547.85 743.91 548.97 743.91 548.97C743.91 548.97 751.91 530.1 756.78 526.65C757.946 525.83 759.261 525.247 760.652 524.936C762.042 524.624 763.481 524.589 764.885 524.834C766.289 525.078 767.631 525.596 768.835 526.359C770.038 527.122 771.08 528.114 771.9 529.28C772.72 530.445 773.303 531.761 773.614 533.152C773.926 534.542 773.961 535.981 773.717 537.385C773.472 538.789 772.954 540.131 772.191 541.335C771.428 542.538 770.436 543.58 769.27 544.4Z" fill="#37474F"/>
<path d="M747.341 596.72C741.341 597.22 723.141 587.86 723.141 587.86C723.141 587.86 739.551 575.6 745.481 575.09C748.349 574.849 751.196 575.757 753.395 577.614C755.593 579.472 756.964 582.127 757.206 584.995C757.447 587.863 756.539 590.71 754.681 592.909C752.824 595.108 750.169 596.479 747.301 596.72H747.341Z" fill="#37474F"/>
<path d="M721.83 632.57C716.03 634.07 696.49 627.93 696.49 627.93C696.49 627.93 710.58 613.06 716.38 611.56C717.77 611.17 719.223 611.06 720.655 611.239C722.087 611.417 723.469 611.879 724.72 612.598C725.971 613.317 727.067 614.278 727.942 615.425C728.817 616.573 729.454 617.883 729.817 619.28C730.179 620.677 730.26 622.132 730.053 623.56C729.846 624.988 729.357 626.361 728.613 627.598C727.869 628.834 726.886 629.91 725.721 630.762C724.557 631.614 723.234 632.225 721.83 632.56V632.57Z" fill="#37474F"/>
<path d="M722.349 541.53C724.769 547.01 741.729 558.53 741.729 558.53C741.729 558.53 744.619 538.25 742.189 532.77C740.989 530.195 738.827 528.192 736.167 527.194C733.507 526.195 730.561 526.28 727.963 527.43C725.365 528.58 723.321 530.703 722.272 533.343C721.222 535.983 721.25 538.93 722.349 541.55V541.53Z" fill="#37474F"/>
<path d="M693.049 583.84C696.999 588.34 716.619 594.24 716.619 594.24C716.619 594.24 713.309 574.02 709.349 569.52C708.417 568.422 707.276 567.52 705.991 566.868C704.707 566.215 703.306 565.825 701.869 565.72C700.433 565.614 698.989 565.796 697.624 566.255C696.258 566.713 694.998 567.439 693.916 568.389C692.833 569.34 691.951 570.497 691.321 571.792C690.69 573.087 690.324 574.495 690.244 575.933C690.163 577.371 690.369 578.811 690.851 580.169C691.333 581.526 692.08 582.774 693.049 583.84V583.84Z" fill="#37474F"/>
<path d="M670.209 628.86C673.349 633.97 691.689 643.09 691.689 643.09C691.689 643.09 691.839 622.61 688.689 617.5C687.943 616.286 686.966 615.231 685.812 614.394C684.658 613.558 683.351 612.957 681.965 612.626C680.579 612.295 679.142 612.241 677.734 612.465C676.327 612.69 674.978 613.189 673.764 613.935C672.55 614.681 671.495 615.659 670.659 616.812C669.822 617.966 669.222 619.273 668.891 620.659C668.56 622.045 668.505 623.483 668.729 624.89C668.954 626.297 669.453 627.646 670.199 628.86H670.209Z" fill="#37474F"/>
<path opacity="0.1" d="M374.169 833.98C439.825 833.98 493.049 825.057 493.049 814.05C493.049 803.043 439.825 794.12 374.169 794.12C308.513 794.12 255.289 803.043 255.289 814.05C255.289 825.057 308.513 833.98 374.169 833.98Z" fill="#37474F"/>
<path opacity="0.1" d="M608.159 680.99C673.815 680.99 727.039 672.067 727.039 661.06C727.039 650.053 673.815 641.13 608.159 641.13C542.504 641.13 489.279 650.053 489.279 661.06C489.279 672.067 542.504 680.99 608.159 680.99Z" fill="#37474F"/>
<path d="M616.05 398.03L615.94 401.92L609.18 640.44H597.82L603.39 401.92L603.5 397.43L616.05 398.03Z" fill="#B77B7F"/>
<path d="M681.821 600.09L673.311 600.07L546.871 599.8L540.131 599.79L543.721 588.73H680.921L681.821 600.09Z" fill="#DDA2A6"/>
<path opacity="0.1" d="M616.051 398.03L615.941 401.92H603.391L603.501 397.43L616.051 398.03Z" fill="black"/>
<path d="M620.84 392.2H599.77V400.13H620.84V392.2Z" fill="#B77B7F"/>
<path opacity="0.1" d="M547.991 588.73L546.871 599.8L540.131 599.79L543.721 588.73H547.991Z" fill="black"/>
<path d="M566.141 392.05L565.791 395.49L537.741 672.13L524.891 671.52L554.451 395.49L554.781 392.35L566.141 392.05Z" fill="#DDA2A6"/>
<path opacity="0.1" d="M681.82 600.09L673.31 600.07L672.16 588.73H680.92L681.82 600.09Z" fill="black"/>
<path d="M695.27 671.52L682.409 672.13L654.37 395.49L654.02 392.05L665.37 392.35L665.7 395.49L695.27 671.52Z" fill="#DDA2A6"/>
<path d="M749.96 119.3H466.6V391H749.96V119.3Z" fill="white"/>
<path d="M613.811 28.43V94.04H602.761V28.43C602.729 27.6847 602.849 26.9406 603.112 26.2427C603.375 25.5447 603.777 24.9072 604.293 24.3686C604.809 23.83 605.429 23.4014 606.115 23.1086C606.802 22.8158 607.54 22.6649 608.286 22.6649C609.032 22.6649 609.77 22.8158 610.456 23.1086C611.142 23.4014 611.762 23.83 612.278 24.3686C612.795 24.9072 613.196 25.5447 613.46 26.2427C613.723 26.9406 613.843 27.6847 613.811 28.43V28.43Z" fill="#DDA2A6"/>
<path opacity="0.1" d="M613.81 88.07H602.75V94.04H613.81V88.07Z" fill="black"/>
<path d="M618.15 92.55V114.21H598.48V92.55C598.479 92.1964 598.548 91.846 598.683 91.519C598.817 91.1921 599.015 90.895 599.265 90.6449C599.515 90.3949 599.813 90.1968 600.139 90.0621C600.466 89.9274 600.817 89.8587 601.17 89.86H615.48C616.19 89.8653 616.87 90.151 617.37 90.6549C617.87 91.1588 618.15 91.84 618.15 92.55Z" fill="#DDA2A6"/>
<path opacity="0.1" d="M608.28 107.79C610.588 107.79 612.46 105.919 612.46 103.61C612.46 101.301 610.588 99.43 608.28 99.43C605.971 99.43 604.1 101.301 604.1 103.61C604.1 105.919 605.971 107.79 608.28 107.79Z" fill="black"/>
<path d="M608.28 106.89C610.588 106.89 612.46 105.019 612.46 102.71C612.46 100.401 610.588 98.53 608.28 98.53C605.971 98.53 604.1 100.401 604.1 102.71C604.1 105.019 605.971 106.89 608.28 106.89Z" fill="#B77B7F"/>
<path opacity="0.1" d="M618.15 111.53H598.42V114.22H618.15V111.53Z" fill="black"/>
<path opacity="0.1" d="M626.22 115.12H590.35V121.1H626.22V115.12Z" fill="black"/>
<path d="M626.22 113.32H590.35V119.3H626.22V113.32Z" fill="#DDA2A6"/>
<path opacity="0.1" d="M535.721 384H686.371C688.095 384 689.748 384.685 690.967 385.904C692.186 387.123 692.871 388.776 692.871 390.5V391.92H529.221V390.5C529.221 388.776 529.906 387.123 531.125 385.904C532.343 384.685 533.997 384 535.721 384V384Z" fill="black"/>
<path opacity="0.1" d="M554.779 392.35L566.139 392.05L565.789 395.49H554.449L554.779 392.35Z" fill="black"/>
<path opacity="0.1" d="M620.84 392.2H599.77V395.49H620.84V392.2Z" fill="black"/>
<path opacity="0.1" d="M665.7 395.49H654.37L654.02 392.05L665.37 392.35L665.7 395.49Z" fill="black"/>
<path d="M535.721 385.77H686.371C688.095 385.77 689.748 386.455 690.967 387.674C692.186 388.893 692.871 390.546 692.871 392.27V393.69H529.221V392.27C529.221 390.546 529.906 388.893 531.125 387.674C532.343 386.455 533.997 385.77 535.721 385.77V385.77Z" fill="#DDA2A6"/>
<path d="M502.69 259.63C500.42 258.43 475.69 239.75 475.69 239.75L435.78 214.44C435.78 214.44 435.57 213.84 435.19 212.81C446.14 200.38 443.75 182.34 432.61 169.66C419.11 154.28 358.11 121.17 339.73 149.49C337.16 153.49 337.07 158.03 336.4 162.43C334.83 172.7 329.77 182.65 321.83 191.03C315.71 197.5 307.68 203.46 304.16 210.78C304.16 210.69 304.09 210.6 304.06 210.5C303.21 212.069 302.594 213.753 302.23 215.5C300.48 224.43 306.48 232.99 309.67 241.68C310.741 244.623 311.518 247.664 311.99 250.76C312.07 250.14 312.14 249.53 312.21 248.91C312.987 253.318 313.252 257.801 313 262.27C290.85 266.78 290.84 304.67 290.84 304.67C290.84 304.67 288.11 319.73 288.57 325.16C289.03 330.59 289.02 342.33 289.02 345.16C289.02 347.99 286.29 365.64 286.02 367.76C286.022 367.79 286.022 367.82 286.02 367.85C285.62 370.17 281.47 381.35 291.5 383.85C292.2 384.03 292.94 384.18 293.71 384.32C294.14 393.37 294.92 412.32 294.23 416.54C294.23 416.54 297.88 442 300.91 448.47C302.826 452.264 305.068 455.884 307.61 459.29C307.39 460.84 306.866 462.332 306.07 463.68C304.52 465.91 305.32 467.74 307.91 468.53C307.82 469.3 307.72 470.17 307.61 471.15C306.5 480.97 304.84 500.49 307.66 510.38C311.53 523.94 311.76 528.46 311.76 528.46C311.76 528.46 311.76 532.52 313.36 534.78C314.96 537.04 317.91 558.06 317.91 561.45C317.91 564.84 325.65 595.34 323.37 602.57C321.09 609.8 322.92 619.97 322.92 619.97C322.92 619.97 321.55 637.82 319.92 641.66C318.29 645.5 317.64 707.41 320.14 723.45C322.64 739.49 324.24 752.82 324.24 752.82C324.24 752.82 322.65 767.51 324.01 769.54C325.37 771.57 327.88 783.78 326.06 784.45C324.24 785.12 323.33 790.1 323.33 790.1C324.292 791.563 325.33 792.975 326.44 794.33C325.738 794.085 325.053 793.794 324.39 793.46C325.11 794.46 326.19 795.88 327.52 797.46L326.27 813.71C326.217 814.344 326.389 814.976 326.754 815.497C327.119 816.018 327.656 816.394 328.27 816.56C332.263 817.645 336.476 817.627 340.459 816.507C344.443 815.387 348.048 813.207 350.89 810.2C362.27 798.68 366.14 800.26 368.19 793.26C368.41 792.51 368.6 791.77 368.76 791.07C370.23 784.83 363.58 780.19 358.29 782.85C359.02 777.91 359.59 772.3 359.04 769.13C357.9 762.58 358.13 745.41 358.13 745.41L356.54 663.16C356.54 663.16 359.49 646.89 362.91 640.57C366.33 634.25 365.91 612.1 365.91 612.1L369.78 539.34L373.42 503.87C373.42 503.87 377.06 491.67 381.61 505.23C381.61 505.23 379.11 532.56 380.25 539.12C381.39 545.68 382.98 577.53 381.84 584.53C380.7 591.53 375.7 629.95 378.84 639.66C381.98 649.37 385.48 661.14 384.78 664.99C384.08 668.84 381.78 752.2 381.78 752.2C381.78 752.2 387.93 768.2 383.38 773.44C378.83 778.68 383.15 799.44 383.15 799.44C383.15 799.44 383.7 799.83 384.64 800.37L384.51 802.1L383.08 820.79C383.029 821.425 383.201 822.058 383.566 822.58C383.931 823.102 384.466 823.48 385.08 823.65C389.073 824.736 393.286 824.719 397.27 823.599C401.253 822.479 404.858 820.298 407.7 817.29C419.08 805.76 422.95 807.35 425 800.34C425.22 799.59 425.41 798.86 425.58 798.15C427.18 791.34 419.08 786.4 413.66 790.85L413.39 791.08C413.107 791.321 412.809 791.544 412.5 791.75C412.356 791.856 412.206 791.953 412.05 792.04C413.19 786.88 414.85 778.04 414.05 773.9C412.91 767.8 415.18 749.28 415.18 749.28C415.18 749.28 421.78 727.13 422.01 718.28L423.83 647.79C423.83 647.79 423.61 619.09 424.52 612.09C425.43 605.09 432.71 544.53 439.99 526.45C445.58 512.61 448.08 477.29 446.6 459.38C446.52 458.5 446.44 457.65 446.34 456.86C455.27 450.27 456.16 439.31 456.16 439.31C456.16 439.31 447.96 423.65 440.07 417.02C432.18 410.39 430.48 398.99 430.76 394.14C430.894 391.185 429.92 388.286 428.03 386.01C428.03 386.01 424.39 374.26 421.96 373.06C421.761 372.959 421.582 372.823 421.43 372.66C419.78 370.89 421.05 365.83 421.05 365.83V365.67C421.34 364.5 423.05 356.92 422.54 354.98C421.93 352.88 422.84 342.93 422.84 342.93C422.84 342.93 428.61 325.76 427.7 312.2C426.79 298.64 439.54 299.85 439.54 299.85L478.91 299.44H483.39C484.97 298.099 486.413 296.605 487.7 294.98C495.2 294.09 510.37 291.26 512.07 282.98C514.38 271.99 504.97 260.84 502.69 259.63ZM320.29 384.99L320.56 378.1C321.49 378.9 322.11 379.41 322.11 379.41C322.612 381.213 322.636 383.115 322.18 384.93C321.936 385.782 321.502 386.569 320.912 387.23C320.321 387.891 319.589 388.411 318.77 388.75C318.579 388.833 318.396 388.93 318.22 389.04L317.84 385.15L320.29 384.99ZM463.09 263.99C461.42 263.24 455.8 263.39 452.91 263.39C450.02 263.39 445.33 260.98 445.33 260.98C444.33 259.03 438.8 257.87 433.88 257.21C430.14 247.99 424.88 239 424.17 229.39C424.17 229.04 424.17 228.69 424.12 228.34L424.69 229.34C424.69 229.34 447.61 243.96 450.19 248.34C452.19 251.68 461.82 259.14 466.28 262.48C465.666 263.281 464.805 263.858 463.83 264.12C463.576 264.148 463.319 264.102 463.09 263.99V263.99Z" fill="url(#paint0_linear)"/>
<path d="M425.24 798.21C425.07 798.91 424.89 799.64 424.67 800.38C422.67 807.38 418.84 805.76 407.67 817.19C404.887 820.173 401.341 822.339 397.416 823.453C393.491 824.567 389.336 824.587 385.4 823.51C384.786 823.348 384.249 822.974 383.883 822.454C383.517 821.935 383.346 821.303 383.4 820.67L384.81 802.13L385.48 793.21C385.48 793.21 403.32 798.21 412.4 791.86C412.705 791.652 412.999 791.428 413.28 791.19C413.35 791.127 413.417 791.06 413.48 790.99C414.652 790.02 416.098 789.441 417.616 789.334C419.134 789.226 420.647 789.597 421.943 790.393C423.24 791.189 424.255 792.371 424.846 793.772C425.437 795.174 425.575 796.726 425.24 798.21V798.21Z" fill="#67647E"/>
<path d="M369.24 791.21C369.07 791.91 368.89 792.64 368.67 793.38C366.67 800.38 362.84 798.76 351.67 810.19C348.887 813.173 345.341 815.339 341.416 816.453C337.491 817.567 333.336 817.587 329.4 816.51C328.786 816.348 328.249 815.974 327.883 815.454C327.517 814.935 327.346 814.303 327.4 813.67L328.81 795.13L329.48 786.21C329.48 786.21 347.32 791.21 356.4 784.86C356.705 784.652 356.999 784.428 357.28 784.19C357.35 784.127 357.417 784.06 357.48 783.99C358.652 783.02 360.098 782.441 361.616 782.334C363.134 782.226 364.647 782.597 365.943 783.393C367.24 784.189 368.255 785.371 368.846 786.772C369.437 788.174 369.575 789.726 369.24 791.21V791.21Z" fill="#67647E"/>
<path opacity="0.1" d="M350.809 793.99L351.529 803.63C341.289 813.86 329.099 798.63 325.529 793.63C334.919 798.47 350.809 793.99 350.809 793.99Z" fill="black"/>
<path opacity="0.1" d="M411 797.91L412.34 797.02C402.99 811.24 389.1 804.68 384.77 802.13L385.44 793.21C385.44 793.21 403.28 798.21 412.36 791.86C411.65 795.34 411 797.91 411 797.91Z" fill="black"/>
<path d="M439.479 528.68C432.299 546.61 425.129 606.68 424.229 613.68C423.329 620.68 423.559 649.1 423.559 649.1L421.759 718.99C421.529 727.74 415.029 749.71 415.029 749.71C415.029 749.71 412.789 768.09 413.909 774.14C415.029 780.19 410.999 796.14 410.999 796.14L412.339 795.24C401.129 812.24 383.419 799.5 383.419 799.5C383.419 799.5 379.159 778.88 383.649 773.72C388.139 768.56 382.079 752.65 382.079 752.65C382.079 752.65 384.319 669.93 384.989 666.12C385.659 662.31 382.299 650.65 379.159 641.01C376.019 631.37 380.959 593.26 382.079 586.31C383.199 579.36 381.629 547.75 380.509 541.25C379.389 534.75 381.849 507.62 381.849 507.62C377.369 494.17 373.779 506.28 373.779 506.28L370.189 541.47L366.379 613.66C366.379 613.66 366.829 635.66 363.469 641.91C360.109 648.16 357.189 664.32 357.189 664.32L358.759 745.93C358.759 745.93 358.539 762.93 359.659 769.46C360.779 775.99 357.189 792.78 357.189 792.78C344.639 822.35 324.479 790.29 324.479 790.29C324.479 790.29 325.379 785.36 327.169 784.69C328.959 784.02 326.499 771.91 325.169 769.89C323.839 767.87 325.389 753.3 325.389 753.3C325.389 753.3 323.819 740.08 321.389 724.16C318.959 708.24 319.599 646.82 321.169 643.01C322.739 639.2 324.079 621.49 324.079 621.49C324.079 621.49 322.289 611.4 324.529 604.22C326.769 597.04 319.149 566.79 319.149 563.42C319.149 560.05 316.239 539.21 314.669 536.97C313.099 534.73 313.099 530.69 313.099 530.69C313.099 530.69 312.879 526.21 309.099 512.76C306.319 502.94 307.959 483.58 309.049 473.83C309.439 470.22 309.779 467.92 309.779 467.92C309.779 467.92 438.349 447.07 443.479 451.78C444.679 452.89 445.479 456.7 445.949 462.13C447.479 479.89 444.959 514.99 439.479 528.68Z" fill="#444053"/>
<path opacity="0.1" d="M390.82 629.48C391.42 629.48 405.62 630.68 410.82 629.63C416.02 628.58 390.82 629.48 390.82 629.48Z" fill="black"/>
<path opacity="0.1" d="M391.869 637.85C391.869 637.85 411.479 641.29 412.479 639.5C413.479 637.71 391.869 637.85 391.869 637.85Z" fill="black"/>
<path opacity="0.1" d="M331.939 634.26C331.939 634.26 342.099 634.71 347.629 637.26C353.159 639.81 331.939 634.26 331.939 634.26Z" fill="black"/>
<path d="M295.02 382.89C295.02 382.89 296.66 414.12 295.77 419.65C295.77 419.65 299.35 444.91 302.34 451.33C305.33 457.75 311.76 465.83 311.76 465.83L320.58 403.83L318.48 382.59L295.02 382.89Z" fill="#EFB7B9"/>
<path d="M387.68 240.61C406.745 240.61 422.2 225.155 422.2 206.09C422.2 187.025 406.745 171.57 387.68 171.57C368.615 171.57 353.16 187.025 353.16 206.09C353.16 225.155 368.615 240.61 387.68 240.61Z" fill="#EFB7B9"/>
<path d="M369.749 222.22C369.749 222.22 358.989 243.3 348.229 253.16C337.469 263.02 412.789 274.23 414.579 274.23C416.369 274.23 401.129 229.4 403.819 223.99C406.509 218.58 369.749 222.22 369.749 222.22Z" fill="#EFB7B9"/>
<path opacity="0.1" d="M445.97 462.13C444.28 463.421 442.415 464.465 440.43 465.23C426.69 470.61 411.74 478.08 401.58 475.1C391.42 472.12 369.9 475.1 369.9 475.1C369.9 475.1 326.55 471.51 317.9 473.6C313.96 474.55 310.9 474.51 308.9 473.83C309.29 470.22 309.63 467.92 309.63 467.92C309.63 467.92 438.35 447.07 443.48 451.78C444.7 452.89 445.48 456.7 445.97 462.13Z" fill="black"/>
<path d="M455.38 442.21C455.38 442.21 454.19 457.16 440.43 462.54C426.67 467.92 411.74 475.39 401.58 472.41C391.42 469.43 369.9 472.41 369.9 472.41C369.9 472.41 326.55 468.82 317.9 470.91C309.25 473 304.74 470.32 307.43 466.43C310.12 462.54 309.83 449.69 309.83 444.31C309.83 438.93 306.83 417.11 309.52 413.22C312.21 409.33 314.6 394.39 319.98 391.99C320.788 391.65 321.51 391.133 322.091 390.477C322.673 389.821 323.1 389.043 323.34 388.2C323.785 386.401 323.761 384.517 323.27 382.73C323.27 382.73 322.36 381.98 321.11 380.87C317.94 378.04 312.58 372.79 314.3 371.07C316.69 368.67 314.3 353.13 314.3 353.13C314.3 353.13 308.62 341.18 310.72 336.7C312.82 332.22 292.48 308.6 292.48 308.6C292.48 308.6 292.48 267.96 316.99 266.16C316.99 266.16 334.33 266.76 336.42 258.99C338.51 251.22 352.26 246.73 352.26 246.73L383.65 253.61C383.65 253.61 411.44 259.61 416.53 256C421.62 252.39 425.53 260.78 425.53 260.78C425.53 260.78 442.86 261.68 444.65 265.27C446.44 268.86 438.98 303.82 438.98 303.82C438.98 303.82 426.42 302.63 427.32 316.08C428.22 329.53 422.48 346.57 422.48 346.57C422.48 346.57 421.58 356.43 422.18 358.52C422.74 360.45 421 367.97 420.72 369.13V369.28C420.72 369.28 419.47 374.28 421.09 376.06C421.241 376.221 421.416 376.356 421.61 376.46C424.01 377.65 427.61 389.31 427.61 389.31C429.477 391.573 430.435 394.45 430.3 397.38C430.01 402.17 431.8 413.52 439.57 420.1C447.34 426.68 455.38 442.21 455.38 442.21Z" fill="#A36468"/>
<path d="M322.071 372.99V374.26L321.531 388.26C321.531 388.26 303.141 389.75 293.131 387.26C283.121 384.77 287.331 373.66 287.731 371.36C287.734 371.33 287.734 371.3 287.731 371.27C288.021 369.17 290.731 351.69 290.731 348.85C290.731 346.01 290.731 334.35 290.281 328.97C289.831 323.59 292.481 308.6 292.481 308.6L294.421 306.22L315.481 314.29L322.071 372.99Z" fill="#A36468"/>
<path opacity="0.1" d="M322.02 374.29L321.48 388.29C321.48 388.29 303.09 389.78 293.08 387.29C283.07 384.8 287.28 373.69 287.68 371.39L322.02 374.29Z" fill="black"/>
<path opacity="0.1" d="M323.339 388.21C323.784 386.411 323.76 384.527 323.269 382.74C323.269 382.74 322.359 381.99 321.109 380.88C336.939 378.67 399.629 370.07 420.739 369.13V369.28C420.739 369.28 419.489 374.28 421.109 376.06L323.339 388.21Z" fill="black"/>
<path opacity="0.1" d="M423.1 398.99C423.1 398.99 426.99 420.99 412.49 428.73C412.48 428.77 420.71 417.86 423.1 398.99Z" fill="black"/>
<path opacity="0.1" d="M328.199 429.36C328.199 429.36 363.199 423.36 370.049 428.02C376.899 432.68 328.199 429.36 328.199 429.36Z" fill="black"/>
<path opacity="0.1" d="M411 293.21C411 293.21 405.62 315.33 409.65 320.41C413.68 325.49 411 293.21 411 293.21Z" fill="black"/>
<path opacity="0.1" d="M309.671 275.13C309.671 275.13 314.601 283.35 311.611 291.87C308.621 300.39 309.671 275.13 309.671 275.13Z" fill="black"/>
<path opacity="0.1" d="M299.48 347.17C299.48 347.17 305.76 350.9 303.67 356.73C301.58 362.56 299.48 347.17 299.48 347.17Z" fill="black"/>
<path opacity="0.1" d="M298.91 330.13C298.91 330.13 304.73 333.27 305.48 337.9C306.23 342.53 298.91 330.13 298.91 330.13Z" fill="black"/>
<path opacity="0.1" d="M385.289 508.87C385.289 508.87 421.909 512.61 429.229 503.94C429.229 503.99 396.199 510.52 385.289 508.87Z" fill="black"/>
<path opacity="0.1" d="M322.07 506.78C322.07 506.78 361.38 516.05 369.15 508.72C369.15 508.72 335.37 511.26 322.07 506.78Z" fill="black"/>
<path opacity="0.1" d="M388.131 520.99C388.131 520.99 404.571 520.99 412.191 521.44C419.811 521.89 388.131 520.99 388.131 520.99Z" fill="black"/>
<path opacity="0.1" d="M324.76 527.99C324.76 527.99 332.83 537.11 341.95 535.47C351.07 533.83 324.76 527.99 324.76 527.99Z" fill="black"/>
<path d="M340.611 154.64C338.081 158.57 337.991 163.12 337.331 167.48C335.791 177.67 330.801 187.54 322.991 195.86C315.821 203.48 305.991 210.39 304.131 219.7C302.371 228.54 308.341 237.05 311.471 245.7C319.721 268.39 308.201 292.19 304.841 315.61C303.911 322.08 305.031 330.35 313.001 332.5C315.491 333.18 318.341 333.09 320.581 334.17C323.581 335.61 324.501 338.6 325.051 341.29C327.057 350.912 327.75 360.762 327.111 370.57C326.751 376.07 326.351 382.4 331.551 386.18C333.911 387.91 337.091 388.79 340.161 389.62C348.351 391.83 358.941 393.62 364.461 388.43C366.781 386.26 367.651 383.2 370.541 381.48C374.871 378.91 381.011 380.65 386.461 380.92C397.651 381.48 407.931 374.92 412.341 367.01C416.751 359.1 416.341 350.01 414.741 341.48C413.141 332.95 410.281 324.48 410.081 315.82C410.011 312.82 410.281 309.77 412.001 307.11C415.331 301.96 423.081 299.62 428.381 295.57C438.311 287.97 438.281 275.52 434.671 265.1C431.061 254.68 424.581 244.69 423.781 233.92C423.424 231.316 423.941 228.668 425.251 226.39C426.671 224.2 429.151 222.56 431.251 220.75C445.741 208.51 444.031 188.41 432.051 174.65C418.791 159.4 358.711 126.55 340.611 154.64Z" fill="#E3787D"/>
<g opacity="0.1">
<path opacity="0.1" d="M313.31 255.12C314.44 246.03 314.23 237.02 311.02 228.17C309.44 223.83 307.15 219.52 305.48 215.17C304.645 216.743 304.039 218.426 303.68 220.17C301.92 229.01 307.89 237.52 311.02 246.17C312.073 249.071 312.84 252.069 313.31 255.12Z" fill="black"/>
<path opacity="0.1" d="M326.659 353.04C327.296 343.232 326.607 333.383 324.609 323.76C324.049 321.07 323.129 318.09 320.129 316.65C317.889 315.57 315.039 315.65 312.549 314.98C311.019 314.613 309.593 313.902 308.38 312.9C307.167 311.898 306.199 310.633 305.549 309.2C305.089 311.48 304.689 313.75 304.359 316.03C303.429 322.5 304.549 330.77 312.519 332.92C315.009 333.59 317.859 333.5 320.099 334.58C323.099 336.02 324.019 339.01 324.579 341.7C325.497 346.163 326.138 350.678 326.499 355.22C326.569 354.48 326.609 353.76 326.659 353.04Z" fill="black"/>
<path opacity="0.1" d="M411.9 349.49C407.48 357.43 397.2 363.96 386.01 363.4C380.56 363.12 374.42 361.4 370.1 363.96C367.21 365.67 366.33 368.74 364.01 370.91C358.49 376.06 347.901 374.31 339.711 372.1C336.641 371.26 333.47 370.39 331.1 368.66C328.842 366.999 327.318 364.524 326.85 361.76C326.91 364.83 326.85 367.91 326.66 370.98C326.3 376.48 325.9 382.81 331.1 386.6C333.47 388.32 336.641 389.2 339.711 390.03C347.901 392.24 358.49 394.03 364.01 388.84C366.33 386.67 367.21 383.61 370.1 381.84C374.42 379.27 380.56 381.01 386.01 381.28C397.2 381.84 407.48 375.28 411.9 367.37C416.14 359.73 415.95 351.09 414.47 342.84C413.913 345.161 413.049 347.397 411.9 349.49Z" fill="black"/>
<path opacity="0.1" d="M430.84 203.27C428.7 205.07 426.22 206.72 424.84 208.91C423.53 211.188 423.013 213.836 423.37 216.44C423.66 219.712 424.352 222.937 425.43 226.04C427.095 224.264 428.919 222.644 430.88 221.2C440.68 212.93 443.06 201.06 439.88 189.98C438.202 195.185 435.064 199.798 430.84 203.27V203.27Z" fill="black"/>
<path opacity="0.1" d="M427.929 278.04C422.639 282.09 414.879 284.44 411.559 289.59C409.829 292.25 409.559 295.32 409.629 298.29C409.752 301.787 410.18 305.267 410.909 308.69C411.098 308.285 411.315 307.894 411.559 307.52C414.879 302.37 422.639 300.03 427.929 295.98C436.999 289.04 437.759 278.06 435.079 268.27C433.719 272.165 431.23 275.566 427.929 278.04V278.04Z" fill="black"/>
</g>
<path d="M482.279 299.34C482.279 299.34 508.139 298 510.379 287.09C512.619 276.18 503.379 265.09 501.119 263.92C498.859 262.75 474.479 244.19 474.479 244.19L435.179 219.09C435.179 219.09 416.349 165.09 412.179 185.76C408.009 206.43 424.289 233.88 424.289 233.88C424.289 233.88 446.849 248.38 449.389 252.71C451.929 257.04 467.479 268.4 467.479 268.4L482.279 299.34Z" fill="#EFB7B9"/>
<path d="M496.18 281.7C490.06 297.25 482.13 303.38 482.13 303.38H477.72L438.95 303.78L434.48 291.57L440.76 265.11L444.64 265.27C444.64 265.27 449.28 267.66 452.11 267.66C454.94 267.66 460.49 267.51 462.11 268.25C462.337 268.361 462.592 268.399 462.84 268.36C464.31 268.21 465.84 266.01 465.84 266.01C465.84 266.01 502.31 266.16 496.18 281.7Z" fill="#A36468"/>
<path opacity="0.1" d="M496.179 281.7C490.059 297.25 482.129 303.38 482.129 303.38H477.719C480.019 297.22 484.869 284.58 486.719 281.66C488.529 278.9 472.289 272.03 462.789 268.32C464.259 268.17 465.789 265.97 465.789 265.97C465.789 265.97 502.309 266.16 496.179 281.7Z" fill="black"/>
<path opacity="0.1" d="M90.8206 771.78C115.221 771.78 135.001 767.912 135.001 763.14C135.001 758.368 115.221 754.5 90.8206 754.5C66.4207 754.5 46.6406 758.368 46.6406 763.14C46.6406 767.912 66.4207 771.78 90.8206 771.78Z" fill="#37474F"/>
<path opacity="0.1" d="M827.28 712.44C845.052 712.44 859.46 709.624 859.46 706.15C859.46 702.676 845.052 699.86 827.28 699.86C809.507 699.86 795.1 702.676 795.1 706.15C795.1 709.624 809.507 712.44 827.28 712.44Z" fill="#37474F"/>
<path opacity="0.1" d="M966.77 737.93C984.542 737.93 998.95 735.114 998.95 731.64C998.95 728.166 984.542 725.35 966.77 725.35C948.997 725.35 934.59 728.166 934.59 731.64C934.59 735.114 948.997 737.93 966.77 737.93Z" fill="#37474F"/>
<path opacity="0.1" d="M750.78 790.43C768.552 790.43 782.96 787.614 782.96 784.14C782.96 780.666 768.552 777.85 750.78 777.85C733.007 777.85 718.6 780.666 718.6 784.14C718.6 787.614 733.007 790.43 750.78 790.43Z" fill="#37474F"/>
<path d="M132.57 523.3C132.57 523.3 139.81 532.77 129.23 547.05C118.65 561.33 109.94 573.39 113.48 582.3C113.48 582.3 129.43 555.77 142.42 555.4C155.41 555.03 146.86 539.26 132.57 523.3Z" fill="#37474F"/>
<path opacity="0.1" d="M132.57 523.3C133.203 524.225 133.702 525.235 134.05 526.3C146.72 541.19 153.47 555.08 141.29 555.43C129.95 555.75 116.34 576.04 113.08 581.16C113.184 581.558 113.315 581.949 113.47 582.33C113.47 582.33 129.42 555.8 142.41 555.43C155.4 555.06 146.86 539.26 132.57 523.3Z" fill="black"/>
<path d="M146.02 535.36C146.02 538.69 145.65 541.36 145.19 541.36C144.73 541.36 144.35 538.66 144.35 535.36C144.35 532.06 144.82 533.6 145.28 533.6C145.74 533.6 146.02 531.99 146.02 535.36Z" fill="#FFD037"/>
<path d="M150.641 539.34C147.721 540.93 145.171 541.9 144.951 541.49C144.731 541.08 146.951 539.49 149.841 537.87C152.731 536.25 151.611 537.44 151.841 537.87C152.071 538.3 153.561 537.74 150.641 539.34Z" fill="#FFD037"/>
<path d="M94.3603 523.3C94.3603 523.3 87.1203 532.77 97.7003 547.05C108.28 561.33 116.99 573.39 113.48 582.3C113.48 582.3 97.4803 555.77 84.4803 555.4C71.4803 555.03 80.0703 539.26 94.3603 523.3Z" fill="#37474F"/>
<path opacity="0.1" d="M94.3597 523.3C93.7263 524.225 93.228 525.235 92.8797 526.3C80.2097 541.19 73.4597 555.08 85.6397 555.43C96.9797 555.75 110.64 576.04 113.85 581.16C113.744 581.557 113.617 581.947 113.47 582.33C113.47 582.33 97.4697 555.8 84.4697 555.43C71.4697 555.06 80.0697 539.26 94.3597 523.3Z" fill="black"/>
<path d="M80.9102 535.36C80.9102 538.69 81.2802 541.36 81.7402 541.36C82.2002 541.36 82.5802 538.66 82.5802 535.36C82.5802 532.06 82.1102 533.6 81.6502 533.6C81.1902 533.6 80.9102 531.99 80.9102 535.36Z" fill="#FFD037"/>
<path d="M76.2895 539.34C79.2195 540.93 81.7595 541.9 81.9895 541.49C82.2195 541.08 79.9895 539.49 77.0895 537.87C74.1895 536.25 75.3195 537.44 75.0895 537.87C74.8595 538.3 73.3695 537.74 76.2895 539.34Z" fill="#FFD037"/>
<path opacity="0.1" d="M113.461 654.68C155.241 654.68 189.111 649.482 189.111 643.07C189.111 636.658 155.241 631.46 113.461 631.46C71.6802 631.46 37.8105 636.658 37.8105 643.07C37.8105 649.482 71.6802 654.68 113.461 654.68Z" fill="#37474F"/>
<path d="M152.4 569.55L152.04 572.55L151.53 576.72L151.32 578.46L150.81 582.64L150.59 584.38L150.08 588.55L144.3 635.99C143.78 640.23 136.86 643.53 128.5 643.53H98.4802C90.1202 643.53 83.2102 640.23 82.6902 635.99L76.9002 588.54L76.3902 584.37L76.1802 582.63L75.6602 578.45L75.4502 576.71L74.9402 572.54L74.5802 569.54C74.2902 567.14 78.0302 565.12 82.7602 565.12H144.28C148.95 565.13 152.7 567.15 152.4 569.55Z" fill="#65617D"/>
<path d="M152.031 572.5L151.531 576.68H75.3906L74.8906 572.5H152.031Z" fill="#9D9CB5"/>
<path d="M151.309 578.42L150.809 582.59H76.1194L75.6094 578.42H151.309Z" fill="#9D9CB5"/>
<path d="M150.59 584.33L150.08 588.5H76.8401L76.3301 584.33H150.59Z" fill="#9D9CB5"/>
<path opacity="0.1" d="M179.99 156.02C197.387 156.02 211.49 141.917 211.49 124.52C211.49 107.123 197.387 93.02 179.99 93.02C162.593 93.02 148.49 107.123 148.49 124.52C148.49 141.917 162.593 156.02 179.99 156.02Z" fill="#37474F"/>
<path opacity="0.1" d="M113.99 69.02C124.76 69.02 133.49 60.2895 133.49 49.52C133.49 38.7504 124.76 30.02 113.99 30.02C103.221 30.02 94.4902 38.7504 94.4902 49.52C94.4902 60.2895 103.221 69.02 113.99 69.02Z" fill="#37474F"/>
<path opacity="0.1" d="M12 105.02C18.6274 105.02 24 99.6474 24 93.02C24 86.3926 18.6274 81.02 12 81.02C5.37258 81.02 0 86.3926 0 93.02C0 99.6474 5.37258 105.02 12 105.02Z" fill="#37474F"/>
</g>
<defs>
<linearGradient id="paint0_linear" x1="398.62" y1="824.41" x2="398.62" y2="138.41" gradientUnits="userSpaceOnUse">
<stop stop-color="#808080" stop-opacity="0.25"/>
<stop offset="0.54" stop-color="#808080" stop-opacity="0.12"/>
<stop offset="1" stop-color="#808080" stop-opacity="0.1"/>
</linearGradient>
<clipPath id="clip0">
<rect width="998.95" height="833.99" fill="white"/>
</clipPath>
</defs>
</svg>
